<?xml version="1.0" standalone="no"?>
<!DOCTYPE svg PUBLIC "-//W3C//DTD SVG 1.1//EN" "http://www.w3.org/Graphics/SVG/1.1/DTD/svg11.dtd" >
<svg xmlns="http://www.w3.org/2000/svg">
<metadata>
This is a custom SVG webfont generated by Font Squirrel.
Copyright   : 1999 2003  yuji oshimo 04dsg4com  www04jporg
</metadata>
<defs>
<font id="webfontZHSmpNiz" horiz-adv-x="1536" >
<font-face units-per-em="2048" ascent="1536" descent="-512" />
<missing-glyph horiz-adv-x="1024" />
<glyph unicode=" "  horiz-adv-x="1024" />
<glyph unicode="&#x09;" horiz-adv-x="1024" />
<glyph unicode="&#xa0;" horiz-adv-x="1024" />
<glyph unicode="!" horiz-adv-x="1024" d="M256 1280v-768h256v768h-256zM256 0h256v256h-256v-256z" />
<glyph unicode="&#x22;" horiz-adv-x="1024" d="M0 768h256v512h-256v-512zM512 768h256v512h-256v-512z" />
<glyph unicode="#" d="M256 0h256v256h256v-256h256v256h256v256h-256v256h256v256h-256v256h-256v-256h-256v256h-256v-256h-256v-256h256v-256h-256v-256h256v-256zM512 768h256v-256h-256v256z" />
<glyph unicode="$" d="M1280 0v768h-512v256h512v256h-1280v-768h512v-256h-512v-256h1280zM256 768v256h256v-256h-256zM768 512h256v-256h-256v256z" />
<glyph unicode="%" d="M512 1280h-512v-512h512v512zM1024 1024h-256v-256h256v256zM1280 1280h-256v-256h256v256zM256 256h256v256h-256v-256zM512 768v-256h256v256h-256zM0 0h256v256h-256v-256zM768 0h512v512h-512v-512z" />
<glyph unicode="&#x26;" horiz-adv-x="1792" d="M768 770v254h-512v-254h512zM768 510h-512v-254h512v254zM1536 0h-256v256h-256v-256h-1024v512h256v256h-256v512h1024v-512h-256v-256h512v256h256v-256h-256v-256h256v-256z" />
<glyph unicode="'" horiz-adv-x="512" d="M256 1280h-256v-512h256v512z" />
<glyph unicode="(" horiz-adv-x="768" d="M256 1024h256v256h-256v-256zM0 256h256v768h-256v-768zM512 0v256h-256v-256h256z" />
<glyph unicode=")" horiz-adv-x="768" d="M0 1280v-256h256v256h-256zM256 256h256v768h-256v-768zM0 0h256v256h-256v-256z" />
<glyph unicode="*" horiz-adv-x="1024" d="M256 1024v256h-256v-256h256zM512 768v256h-256v-256h256zM768 1024v256h-256v-256h256zM256 512v256h-256v-256h256zM768 512v256h-256v-256h256z" />
<glyph unicode="+" d="M1280 768h-512v512h-256v-512h-512v-256h512v-512h256v512h512v256z" />
<glyph unicode="," horiz-adv-x="512" d="M0 0h256v512h-256v-512z" />
<glyph unicode="-" d="M1280 512v256h-1280v-256h1280z" />
<glyph unicode="." horiz-adv-x="512" d="M0 0h256v256h-256v-256z" />
<glyph unicode="/" d="M768 768h256v256h-256v-256zM1280 1280h-256v-256h256v256zM256 256h256v256h-256v-256zM512 512h256v256h-256v-256zM0 0h256v256h-256v-256z" />
<glyph unicode="0" d="M1024 258v764h-768v-764h768zM256 256h-256v768h256v256h768v-256h256v-768h-256v-256h-768v256z" />
<glyph unicode="1" horiz-adv-x="1024" d="M512 256v1024h-512v-256h256v-768h-256v-256h768v256h-256z" />
<glyph unicode="2" d="M0 1280v-256h1024v-256h-1024v-768h1280v256h-1024v256h1024v768h-1280z" />
<glyph unicode="3" d="M0 1280v-256h1024v-256h-1024v-256h1024v-256h-1024v-256h1280v1280h-1280z" />
<glyph unicode="4" d="M512 1022v-256h-256v-254h512v510h-256zM1024 512h256v-256h-256v-256h-256v256h-768v512h256v256h256v256h512v-768z" />
<glyph unicode="5" d="M1280 1024v256h-1280v-768h1024v-256h-1024v-256h1280v768h-1024v256h1024z" />
<glyph unicode="6" d="M1280 1024v256h-1280v-1280h1280v768h-1024v256h1024zM1024 512v-256h-768v256h768z" />
<glyph unicode="7" d="M0 1280v-256h1024v-256h256v512h-1280zM512 256h256v256h-256v-256zM768 512h256v256h-256v-256zM256 0h256v256h-256v-256z" />
<glyph unicode="8" d="M0 1280v-1280h1280v1280h-1280zM1024 256h-768v256h768v-256zM1024 768h-768v256h768v-256z" />
<glyph unicode="9" d="M0 1280v-768h1024v-256h-1024v-256h1280v1280h-1280zM1024 768h-768v256h768v-256z" />
<glyph unicode=":" horiz-adv-x="512" d="M256 768v256h-256v-256h256zM256 256v256h-256v-256h256z" />
<glyph unicode=";" horiz-adv-x="512" d="M256 1024h-256v-256h256v256zM256 512h-256v-512h256v512z" />
<glyph unicode="&#x3c;" horiz-adv-x="1024" d="M256 768h256v256h-256v-256zM512 1024h256v256h-256v-256zM0 512h256v256h-256v-256zM512 256v256h-256v-256h256zM768 0v256h-256v-256h256z" />
<glyph unicode="=" d="M1280 768v256h-1280v-256h1280zM1280 256v256h-1280v-256h1280z" />
<glyph unicode="&#x3e;" horiz-adv-x="1024" d="M0 1280v-256h256v256h-256zM256 1024v-256h256v256h-256zM256 256h256v256h-256v-256zM512 512h256v256h-256v-256zM0 0h256v256h-256v-256z" />
<glyph unicode="?" d="M1280 1280h-1280v-256h1024v-256h-512v-256h768v768zM512 0h256v256h-256v-256z" />
<glyph unicode="@" d="M1280 1280h-1280v-1280h1280v1280zM256 256v768h768v-256h-512v-512h-256zM768 256v256h256v-256h-256z" />
<glyph unicode="A" d="M1024 0h256v1280h-1280v-1280h256v512h768v-512zM256 768v256h768v-256h-768z" />
<glyph unicode="B" d="M1024 258v254h-768v-254h768zM1024 1022h-768v-254h768v254zM1280 1024v-768h-256v-256h-1024v1280h1024v-256h256z" />
<glyph unicode="C" d="M1280 256h-1024v768h1024v256h-1280v-1280h1280v256z" />
<glyph unicode="D" d="M1024 1024h256v-768h-256v-256h-1024v1280h1024v-256zM256 258h768v764h-768v-764z" />
<glyph unicode="E" d="M1280 1024v256h-1280v-1280h1280v256h-1024v256h1024v256h-1024v256h1024z" />
<glyph unicode="F" d="M1280 1024v256h-1280v-1280h256v512h1024v256h-1024v256h1024z" />
<glyph unicode="G" d="M256 1024h1024v256h-1280v-1280h1280v768h-768v-256h512v-256h-768v768z" />
<glyph unicode="H" d="M1024 1280v-512h-768v512h-256v-1280h256v512h768v-512h256v1280h-256z" />
<glyph unicode="I" horiz-adv-x="1024" d="M512 1024h256v256h-768v-256h256v-768h-256v-256h768v256h-256v768z" />
<glyph unicode="J" d="M512 1280v-256h512v-768h256v1024h-768zM0 512v-256h256v256h-256zM256 256v-256h768v256h-768z" />
<glyph unicode="K" d="M1024 1024h-256v-256h256v256zM1280 1280h-256v-256h256v256zM256 768v512h-256v-1280h256v512h512v256h-512zM1024 256v256h-256v-256h256zM1280 0v256h-256v-256h256z" />
<glyph unicode="L" d="M256 256v1024h-256v-1280h1280v256h-1024z" />
<glyph unicode="M" d="M256 1024v256h-256v-1280h256v768h256v256h-256zM1024 1280v-256h-256v-256h256v-768h256v1280h-256zM512 512h256v256h-256v-256z" />
<glyph unicode="N" d="M256 1024v256h-256v-1280h256v768h256v256h-256zM1024 1280v-768h-256v-256h256v-256h256v1280h-256zM512 768v-256h256v256h-256z" />
<glyph unicode="O" d="M0 1280v-1280h1280v1280h-1280zM1024 256h-768v768h768v-768z" />
<glyph unicode="P" d="M0 1280v-1280h256v512h1024v768h-1280zM1024 768h-768v256h768v-256z" />
<glyph unicode="Q" d="M0 1280v-1280h1280v1280h-1280zM1024 512h-256v-256h-512v768h768v-512z" />
<glyph unicode="R" d="M0 1280v-1280h256v512h512v-512h512v256h-256v256h256v768h-1280zM1024 768h-768v256h768v-256z" />
<glyph unicode="S" d="M1280 1024v256h-1280v-768h1024v-256h-1024v-256h1280v768h-1024v256h1024z" />
<glyph unicode="T" d="M0 1280v-256h512v-1024h256v1024h512v256h-1280z" />
<glyph unicode="U" d="M1024 1280v-1024h-768v1024h-256v-1280h1280v1280h-256z" />
<glyph unicode="V" d="M256 1280h-256v-768h256v768zM1024 1280v-768h256v768h-256zM256 512v-256h256v256h-256zM768 256h256v256h-256v-256zM512 0h256v256h-256v-256z" />
<glyph unicode="W" d="M1024 1280v-1024h256v1024h-256zM256 1280h-256v-1024h256v1024zM768 1280h-256v-1024h256v1024zM256 0h256v256h-256v-256zM768 0h256v256h-256v-256z" />
<glyph unicode="X" d="M0 1280v-256h256v256h-256zM256 1024v-256h256v256h-256zM1024 1024h-256v-256h256v256zM1280 1280h-256v-256h256v256zM256 256h256v256h-256v-256zM512 768v-256h256v256h-256zM1024 256v256h-256v-256h256zM0 0h256v256h-256v-256zM1280 0v256h-256v-256h256z" />
<glyph unicode="Y" d="M256 1280h-256v-512h256v512zM1024 1280v-512h256v512h-256zM256 768v-256h256v256h-256zM768 512h256v256h-256v-256zM512 0h256v512h-256v-512z" />
<glyph unicode="Z" d="M1024 1024h256v256h-1280v-256h768v-256h256v256zM256 512v-256h-256v-256h1280v256h-768v256h-256zM768 768h-256v-256h256v256z" />
<glyph unicode="[" horiz-adv-x="768" d="M0 1280v-1280h512v256h-256v768h256v256h-512z" />
<glyph unicode="\" d="M0 1280v-256h256v256h-256zM256 1024v-256h256v256h-256zM512 768v-256h256v256h-256zM768 512v-256h256v256h-256zM1280 0v256h-256v-256h256z" />
<glyph unicode="]" horiz-adv-x="768" d="M0 1280v-256h256v-768h-256v-256h512v1280h-512z" />
<glyph unicode="^" horiz-adv-x="1024" d="M512 1280h-256v-256h256v256zM256 1024h-256v-256h256v256zM768 768v256h-256v-256h256z" />
<glyph unicode="_" d="M1280 0v256h-1280v-256h1280z" />
<glyph unicode="`" horiz-adv-x="768" d="M256 1280h-256v-256h256v256zM512 768v256h-256v-256h256z" />
<glyph unicode="a" d="M1024 0h256v1280h-1280v-1280h256v512h768v-512zM256 768v256h768v-256h-768z" />
<glyph unicode="b" d="M1024 258v254h-768v-254h768zM1024 1022h-768v-254h768v254zM1280 1024v-768h-256v-256h-1024v1280h1024v-256h256z" />
<glyph unicode="c" d="M1280 256h-1024v768h1024v256h-1280v-1280h1280v256z" />
<glyph unicode="d" d="M1024 1024h256v-768h-256v-256h-1024v1280h1024v-256zM256 258h768v764h-768v-764z" />
<glyph unicode="e" d="M1280 1024v256h-1280v-1280h1280v256h-1024v256h1024v256h-1024v256h1024z" />
<glyph unicode="f" d="M1280 1024v256h-1280v-1280h256v512h1024v256h-1024v256h1024z" />
<glyph unicode="g" d="M256 1024h1024v256h-1280v-1280h1280v768h-768v-256h512v-256h-768v768z" />
<glyph unicode="h" d="M1024 1280v-512h-768v512h-256v-1280h256v512h768v-512h256v1280h-256z" />
<glyph unicode="i" horiz-adv-x="1024" d="M512 1024h256v256h-768v-256h256v-768h-256v-256h768v256h-256v768z" />
<glyph unicode="j" d="M512 1280v-256h512v-768h256v1024h-768zM0 512v-256h256v256h-256zM256 256v-256h768v256h-768z" />
<glyph unicode="k" d="M1024 1024h-256v-256h256v256zM1280 1280h-256v-256h256v256zM256 768v512h-256v-1280h256v512h512v256h-512zM1024 256v256h-256v-256h256zM1280 0v256h-256v-256h256z" />
<glyph unicode="l" d="M256 256v1024h-256v-1280h1280v256h-1024z" />
<glyph unicode="m" d="M256 1024v256h-256v-1280h256v768h256v256h-256zM1024 1280v-256h-256v-256h256v-768h256v1280h-256zM512 512h256v256h-256v-256z" />
<glyph unicode="n" d="M256 1024v256h-256v-1280h256v768h256v256h-256zM1024 1280v-768h-256v-256h256v-256h256v1280h-256zM512 768v-256h256v256h-256z" />
<glyph unicode="o" d="M0 1280v-1280h1280v1280h-1280zM1024 256h-768v768h768v-768z" />
<glyph unicode="p" d="M0 1280v-1280h256v512h1024v768h-1280zM1024 768h-768v256h768v-256z" />
<glyph unicode="q" d="M0 1280v-1280h1280v1280h-1280zM1024 512h-256v-256h-512v768h768v-512z" />
<glyph unicode="r" d="M0 1280v-1280h256v512h512v-512h512v256h-256v256h256v768h-1280zM1024 768h-768v256h768v-256z" />
<glyph unicode="s" d="M1280 1024v256h-1280v-768h1024v-256h-1024v-256h1280v768h-1024v256h1024z" />
<glyph unicode="t" d="M0 1280v-256h512v-1024h256v1024h512v256h-1280z" />
<glyph unicode="u" d="M1024 1280v-1024h-768v1024h-256v-1280h1280v1280h-256z" />
<glyph unicode="v" d="M256 1280h-256v-768h256v768zM1024 1280v-768h256v768h-256zM256 512v-256h256v256h-256zM768 256h256v256h-256v-256zM512 0h256v256h-256v-256z" />
<glyph unicode="w" d="M1024 1280v-1024h256v1024h-256zM256 1280h-256v-1024h256v1024zM768 1280h-256v-1024h256v1024zM256 0h256v256h-256v-256zM768 0h256v256h-256v-256z" />
<glyph unicode="x" d="M0 1280v-256h256v256h-256zM256 1024v-256h256v256h-256zM1024 1024h-256v-256h256v256zM1280 1280h-256v-256h256v256zM256 256h256v256h-256v-256zM512 768v-256h256v256h-256zM1024 256v256h-256v-256h256zM0 0h256v256h-256v-256zM1280 0v256h-256v-256h256z" />
<glyph unicode="y" d="M256 1280h-256v-512h256v512zM1024 1280v-512h256v512h-256zM256 768v-256h256v256h-256zM768 512h256v256h-256v-256zM512 0h256v512h-256v-512z" />
<glyph unicode="z" d="M1024 1024h256v256h-1280v-256h768v-256h256v256zM256 512v-256h-256v-256h1280v256h-768v256h-256zM768 768h-256v-256h256v256z" />
<glyph unicode="{" horiz-adv-x="1024" d="M512 1024h256v256h-512v-512h256v256zM256 768h-256v-256h256v256zM256 0h512v256h-256v256h-256v-512z" />
<glyph unicode="|" horiz-adv-x="512" d="M0 0h256v1280h-256v-1280z" />
<glyph unicode="}" horiz-adv-x="1024" d="M512 1280h-512v-256h256v-256h256v512zM256 256h-256v-256h512v512h-256v-256zM512 512h256v256h-256v-256z" />
<glyph unicode="~" horiz-adv-x="1280" d="M256 1280v-256h256v256h-256zM0 768h256v256h-256v-256zM768 1024h256v256h-256v-256zM512 768h256v256h-256v-256z" />
<glyph unicode="&#xaa;" d="M1024 0h256v1280h-1280v-1280h256v512h768v-512zM256 768v256h768v-256h-768z" />
<glyph unicode="&#xad;" d="M1280 512v256h-1280v-256h1280z" />
<glyph unicode="&#xb2;" d="M0 1280v-256h1024v-256h-1024v-768h1280v256h-1024v256h1024v768h-1280z" />
<glyph unicode="&#xb3;" d="M0 1280v-256h1024v-256h-1024v-256h1024v-256h-1024v-256h1280v1280h-1280z" />
<glyph unicode="&#xb9;" horiz-adv-x="1024" d="M512 256v1024h-512v-256h256v-768h-256v-256h768v256h-256z" />
<glyph unicode="&#xba;" d="M0 1280v-1280h1280v1280h-1280zM1024 256h-768v768h768v-768z" />
<glyph unicode="&#xc0;" d="M512 1915h-256v-256h256v256zM768 1403v256h-256v-256h256zM1024 0h256v1280h-1280v-1280h256v512h768v-512zM256 768v256h768v-256h-768z" />
<glyph unicode="&#xc2;" d="M768 1915h-256v-256h256v256zM512 1659h-256v-256h256v256zM1024 1403v256h-256v-256h256zM1024 0h256v1280h-1280v-1280h256v512h768v-512zM256 768v256h768v-256h-768z" />
<glyph unicode="&#xc3;" d="M384 1915v-256h256v256h-256zM128 1403h256v256h-256v-256zM896 1659h256v256h-256v-256zM640 1403h256v256h-256v-256zM1024 0h256v1280h-1280v-1280h256v512h768v-512zM256 768v256h768v-256h-768z" />
<glyph unicode="&#xc8;" d="M512 1915h-256v-256h256v256zM768 1403v256h-256v-256h256zM1280 1024v256h-1280v-1280h1280v256h-1024v256h1024v256h-1024v256h1024z" />
<glyph unicode="&#xca;" d="M768 1915h-256v-256h256v256zM512 1659h-256v-256h256v256zM1024 1403v256h-256v-256h256zM1280 1024v256h-1280v-1280h1280v256h-1024v256h1024v256h-1024v256h1024z" />
<glyph unicode="&#xcc;" horiz-adv-x="1024" d="M256 1915h-256v-256h256v256zM512 1403v256h-256v-256h256zM512 1024h256v256h-768v-256h256v-768h-256v-256h768v256h-256v768z" />
<glyph unicode="&#xce;" horiz-adv-x="1024" d="M512 1915h-256v-256h256v256zM256 1659h-256v-256h256v256zM768 1403v256h-256v-256h256zM512 1024h256v256h-768v-256h256v-768h-256v-256h768v256h-256v768z" />
<glyph unicode="&#xd1;" d="M384 1915v-256h256v256h-256zM128 1403h256v256h-256v-256zM896 1659h256v256h-256v-256zM640 1403h256v256h-256v-256zM256 1024v256h-256v-1280h256v768h256v256h-256zM1024 1280v-768h-256v-256h256v-256h256v1280h-256zM512 768v-256h256v256h-256z" />
<glyph unicode="&#xd2;" d="M512 1915h-256v-256h256v256zM768 1403v256h-256v-256h256zM0 1280v-1280h1280v1280h-1280zM1024 256h-768v768h768v-768z" />
<glyph unicode="&#xd4;" d="M768 1915h-256v-256h256v256zM512 1659h-256v-256h256v256zM1024 1403v256h-256v-256h256zM0 1280v-1280h1280v1280h-1280zM1024 256h-768v768h768v-768z" />
<glyph unicode="&#xd5;" d="M384 1915v-256h256v256h-256zM128 1403h256v256h-256v-256zM896 1659h256v256h-256v-256zM640 1403h256v256h-256v-256zM0 1280v-1280h1280v1280h-1280zM1024 256h-768v768h768v-768z" />
<glyph unicode="&#xd9;" d="M512 1915h-256v-256h256v256zM768 1403v256h-256v-256h256zM1024 1280v-1024h-768v1024h-256v-1280h1280v1280h-256z" />
<glyph unicode="&#xdb;" d="M768 1915h-256v-256h256v256zM512 1659h-256v-256h256v256zM1024 1403v256h-256v-256h256zM1024 1280v-1024h-768v1024h-256v-1280h1280v1280h-256z" />
<glyph unicode="&#xe0;" d="M512 1915h-256v-256h256v256zM768 1403v256h-256v-256h256zM1024 0h256v1280h-1280v-1280h256v512h768v-512zM256 768v256h768v-256h-768z" />
<glyph unicode="&#xe2;" d="M768 1915h-256v-256h256v256zM512 1659h-256v-256h256v256zM1024 1403v256h-256v-256h256zM1024 0h256v1280h-1280v-1280h256v512h768v-512zM256 768v256h768v-256h-768z" />
<glyph unicode="&#xe3;" d="M384 1915v-256h256v256h-256zM128 1403h256v256h-256v-256zM896 1659h256v256h-256v-256zM640 1403h256v256h-256v-256zM1024 0h256v1280h-1280v-1280h256v512h768v-512zM256 768v256h768v-256h-768z" />
<glyph unicode="&#xe8;" d="M512 1915h-256v-256h256v256zM768 1403v256h-256v-256h256zM1280 1024v256h-1280v-1280h1280v256h-1024v256h1024v256h-1024v256h1024z" />
<glyph unicode="&#xea;" d="M768 1915h-256v-256h256v256zM512 1659h-256v-256h256v256zM1024 1403v256h-256v-256h256zM1280 1024v256h-1280v-1280h1280v256h-1024v256h1024v256h-1024v256h1024z" />
<glyph unicode="&#xec;" horiz-adv-x="1024" d="M256 1915h-256v-256h256v256zM512 1403v256h-256v-256h256zM512 1024h256v256h-768v-256h256v-768h-256v-256h768v256h-256v768z" />
<glyph unicode="&#xee;" horiz-adv-x="1024" d="M512 1915h-256v-256h256v256zM256 1659h-256v-256h256v256zM768 1403v256h-256v-256h256zM512 1024h256v256h-768v-256h256v-768h-256v-256h768v256h-256v768z" />
<glyph unicode="&#xf1;" d="M384 1915v-256h256v256h-256zM128 1403h256v256h-256v-256zM896 1659h256v256h-256v-256zM640 1403h256v256h-256v-256zM256 1024v256h-256v-1280h256v768h256v256h-256zM1024 1280v-768h-256v-256h256v-256h256v1280h-256zM512 768v-256h256v256h-256z" />
<glyph unicode="&#xf2;" d="M512 1915h-256v-256h256v256zM768 1403v256h-256v-256h256zM0 1280v-1280h1280v1280h-1280zM1024 256h-768v768h768v-768z" />
<glyph unicode="&#xf4;" d="M768 1915h-256v-256h256v256zM512 1659h-256v-256h256v256zM1024 1403v256h-256v-256h256zM0 1280v-1280h1280v1280h-1280zM1024 256h-768v768h768v-768z" />
<glyph unicode="&#xf5;" d="M384 1915v-256h256v256h-256zM128 1403h256v256h-256v-256zM896 1659h256v256h-256v-256zM640 1403h256v256h-256v-256zM0 1280v-1280h1280v1280h-1280zM1024 256h-768v768h768v-768z" />
<glyph unicode="&#xf9;" d="M512 1915h-256v-256h256v256zM768 1403v256h-256v-256h256zM1024 1280v-1024h-768v1024h-256v-1280h1280v1280h-256z" />
<glyph unicode="&#xfb;" d="M768 1915h-256v-256h256v256zM512 1659h-256v-256h256v256zM1024 1403v256h-256v-256h256zM1024 1280v-1024h-768v1024h-256v-1280h1280v1280h-256z" />
<glyph unicode="&#x152;" horiz-adv-x="3072" d="M2816 1024v256h-1280v-1280h1280v256h-1024v256h1024v256h-1024v256h1024zM0 1280v-1280h1280v1280h-1280zM1024 256h-768v768h768v-768z" />
<glyph unicode="&#x153;" horiz-adv-x="3072" d="M2816 1024v256h-1280v-1280h1280v256h-1024v256h1024v256h-1024v256h1024zM0 1280v-1280h1280v1280h-1280zM1024 256h-768v768h768v-768z" />
<glyph unicode="&#x2c6;" horiz-adv-x="1024" d="M512 1280h-256v-256h256v256zM256 1024h-256v-256h256v256zM768 768v256h-256v-256h256z" />
<glyph unicode="&#x2dc;" horiz-adv-x="1024" d="M-256 635v-256h256v256h-256zM-512 123h256v256h-256v-256zM256 379h256v256h-256v-256zM0 123h256v256h-256v-256z" />
<glyph unicode="&#x2000;" horiz-adv-x="957" />
<glyph unicode="&#x2001;" horiz-adv-x="1914" />
<glyph unicode="&#x2002;" horiz-adv-x="957" />
<glyph unicode="&#x2003;" horiz-adv-x="1914" />
<glyph unicode="&#x2004;" horiz-adv-x="638" />
<glyph unicode="&#x2005;" horiz-adv-x="477" />
<glyph unicode="&#x2006;" horiz-adv-x="319" />
<glyph unicode="&#x2007;" horiz-adv-x="319" />
<glyph unicode="&#x2008;" horiz-adv-x="238" />
<glyph unicode="&#x2009;" horiz-adv-x="382" />
<glyph unicode="&#x200a;" horiz-adv-x="105" />
<glyph unicode="&#x2010;" d="M1280 512v256h-1280v-256h1280z" />
<glyph unicode="&#x2011;" d="M1280 512v256h-1280v-256h1280z" />
<glyph unicode="&#x2012;" d="M1280 512v256h-1280v-256h1280z" />
<glyph unicode="&#x2013;" horiz-adv-x="1024" d="M205 512v205h614v-205h-614z" />
<glyph unicode="&#x2014;" horiz-adv-x="2048" d="M205 512v205h1638v-205h-1638z" />
<glyph unicode="&#x2018;" horiz-adv-x="768" d="M256 1280h-256v-256h256v256zM512 768v256h-256v-256h256z" />
<glyph unicode="&#x2019;" horiz-adv-x="512" d="M256 1280h-256v-512h256v512z" />
<glyph unicode="&#x201c;" horiz-adv-x="1024" d="M0 768h256v512h-256v-512zM512 768h256v512h-256v-512z" />
<glyph unicode="&#x201d;" horiz-adv-x="1024" d="M0 768h256v512h-256v-512zM512 768h256v512h-256v-512z" />
<glyph unicode="&#x2026;" d="M1024 0h256v256h-256v-256zM512 0h256v256h-256v-256zM0 0h256v256h-256v-256z" />
<glyph unicode="&#x202f;" horiz-adv-x="382" />
<glyph unicode="&#x2039;" horiz-adv-x="1024" d="M256 768h256v256h-256v-256zM512 1024h256v256h-256v-256zM0 512h256v256h-256v-256zM512 256v256h-256v-256h256zM768 0v256h-256v-256h256z" />
<glyph unicode="&#x203a;" horiz-adv-x="1024" d="M0 1280v-256h256v256h-256zM256 1024v-256h256v256h-256zM256 256h256v256h-256v-256zM512 512h256v256h-256v-256zM0 0h256v256h-256v-256z" />
<glyph unicode="&#x205f;" horiz-adv-x="477" />
<glyph unicode="&#x2122;" horiz-adv-x="3072" d="M1792 1024v256h-256v-1280h256v768h256v256h-256zM2560 1280v-256h-256v-256h256v-768h256v1280h-256zM2048 512h256v256h-256v-256zM0 1280v-256h512v-1024h256v1024h512v256h-1280z" />
<glyph unicode="&#xe000;" horiz-adv-x="1280" d="M0 1280h1280v-1280h-1280v1280z" />
<glyph unicode="&#xfb01;" horiz-adv-x="2560" d="M2048 1024h256v256h-768v-256h256v-768h-256v-256h768v256h-256v768zM1280 1024v256h-1280v-1280h256v512h1024v256h-1024v256h1024z" />
<glyph unicode="&#xfb02;" horiz-adv-x="3072" d="M1792 256v1024h-256v-1280h1280v256h-1024zM1280 1024v256h-1280v-1280h256v512h1024v256h-1024v256h1024z" />
<glyph unicode="&#xfb03;" horiz-adv-x="4096" d="M3584 1024h256v256h-768v-256h256v-768h-256v-256h768v256h-256v768zM2816 1024v256h-1280v-1280h256v512h1024v256h-1024v256h1024zM1280 1024v256h-1280v-1280h256v512h1024v256h-1024v256h1024z" />
<glyph unicode="&#xfb04;" horiz-adv-x="4608" d="M3328 256v1024h-256v-1280h1280v256h-1024zM2816 1024v256h-1280v-1280h256v512h1024v256h-1024v256h1024zM1280 1024v256h-1280v-1280h256v512h1024v256h-1024v256h1024z" />
</font>
</defs>
</svg>
